<?xml version="1.0" encoding="UTF-8"?>
<!-- Generated by jsxcad -->
<!DOCTYPE svg PUBLIC "-//W3C//DTD SVG 1.1 Tiny//EN" "http://www.w3.org/Graphics/SVG/1.1/DTD/svg11-tiny.dtd">
<svg viewBox="-250 -250 500 500" width="500" height="500" xmlns="http://www.w3.org/2000/svg"><path d="M45.99701004108259,-110.96229391264102L-91.01145623308118,-83.78555989086269L-92.12568182940751,-72.06525042480858zM-91.01145623308118,-83.78555989086269L45.99701004108259,-110.96229391264102L95.29824514276547,-136.78992110987124zM95.29824514276547,-136.78992110987124L45.99701004108259,-110.96229391264102L73.22940577130251,-19.498277147636934zM95.29824514276547,-136.78992110987124L76.36338988257545,-23.29104083738939L76.67919285067399,-23.457943200335443zM95.29824514276547,-136.78992110987124L76.67919285067399,-23.457943200335443L77.00275703158877,-23.61179925284418zM95.29824514276547,-136.78992110987124L76.05657944304536,-23.111745030679153L76.36338988257545,-23.29104083738939zM95.29824514276547,-136.78992110987124L77.00275703158877,-23.61179925284418L77.33282037814558,-23.752009912908473zM95.29824514276547,-136.78992110987124L75.75995644193064,-22.920751655339902L76.05657944304536,-23.111745030679153zM95.29824514276547,-136.78992110987124L77.33282037814558,-23.752009912908473L77.66809996180861,-23.878024186907954zM95.29824514276547,-136.78992110987124L75.47468553143206,-22.71880261716729L75.75995644193064,-22.920751655339902zM95.29824514276547,-136.78992110987124L77.66809996180861,-23.878024186907954L78.00728139453011,-23.989355346683006zM95.29824514276547,-136.78992110987124L75.20186889666464,-22.506688683887447L75.47468553143206,-22.71880261716729zM95.29824514276547,-136.78992110987124L78.00728139453011,-23.989355346683006L78.34905057290811,-24.085559276698802zM95.29824514276547,-136.78992110987124L74.94257865481272,-22.285229508735014L75.20186889666464,-22.506688683887447zM95.29824514276547,-136.78992110987124L78.34905057290811,-24.085559276698802L78.69207194305908,-24.166264033119717zM95.29824514276547,-136.78992110987124L74.69783622227902,-22.05529154519177L74.94257865481272,-22.285229508735014zM95.29824514276547,-136.78992110987124L78.69207194305908,-24.166264033119717L79.03501000025166,-24.231145715790305zM95.29824514276547,-136.78992110987124L74.46859028269992,-21.817766571026983L74.69783622227902,-22.05529154519177zM95.29824514276547,-136.78992110987124L79.03501000025166,-24.231145715790305L79.37651791790894,-24.27994720980721zM95.29824514276547,-136.78992110987124L74.25574986764404,-21.573581550863704L74.46859028269992,-21.817766571026983zM95.29824514276547,-136.78992110987124L79.37651791790894,-24.27994720980721L79.71527562852611,-24.312470378963347zM95.29824514276547,-136.78992110987124L74.06014678886623,-21.323685434333793L74.25574986764404,-21.573581550863704zM95.29824514276547,-136.78992110987124L79.71527562852611,-24.312470378963347L80.04994061832056,-24.328586741824754zM95.29824514276547,-136.78992110987124L73.88255173143938,-21.069052065251242L74.06014678886623,-21.323685434333793zM95.29824514276547,-136.78992110987124L80.04994061832056,-24.328586741824754L80.37921824267346,-24.328224310699696zM95.29824514276547,-136.78992110987124L73.72367474808087,-20.81067652816457L73.88255173143938,-21.069052065251242zM95.29824514276547,-136.78992110987124L80.37921824267346,-24.328224310699696L80.70181867212693,-24.311373162012416zM95.29824514276547,-136.78992110987124L73.5841384118776,-20.549565987418948L73.72367474808087,-20.81067652816457zM95.29824514276547,-136.78992110987124L80.70181867212693,-24.311373162012416L81.01646186634045,-24.2780936027217zM95.29824514276547,-136.78992110987124L73.46450475381377,-20.286742624166365L73.5841384118776,-20.549565987418948zM95.29824514276547,-136.78992110987124L81.01646186634045,-24.2780936027217L81.32192660298868,-24.22850580399849zM95.29824514276547,-136.78992110987124L73.36525371901476,-20.023230406800057L73.46450475381377,-20.286742624166365zM95.29824514276547,-136.78992110987124L81.32192660298868,-24.22850580399849L81.61700708532584,-24.16279262636403zM95.29824514276547,-136.78992110987124L73.28677838815322,-19.760064907083507L73.36525371901476,-20.023230406800057zM95.29824514276547,-136.78992110987124L81.61700708532584,-24.16279262636403L81.90053491840973,-24.081205380566555zM95.29824514276547,-136.78992110987124L73.22940577130251,-19.498277147636934L73.28677838815322,-19.760064907083507zM95.29824514276547,-136.78992110987124L81.90053491840973,-24.081205380566555L82.1714007285929,-23.98405331763883zM95.29824514276547,-136.78992110987124L82.1714007285929,-23.98405331763883L82.42852775990961,-23.871706717342608zM73.22940577130251,-19.498277147636934L45.99701004108259,-110.96229391264102L73.19337609476776,-19.238894018655262zM95.29824514276547,-136.78992110987124L82.42852775990961,-23.871706717342608L82.67089335772619,-23.74459440950308zM73.19337609476776,-19.238894018655262L45.99701004108259,-110.96229391264102L73.17884207824268,-18.982936911242863zM95.29824514276547,-136.78992110987124L82.67089335772619,-23.74459440950308L82.89754036928241,-23.603204180229593zM73.17884207824268,-18.982936911242863L45.99701004108259,-110.96229391264102L73.18588029824649,-18.731411243929188zM95.29824514276547,-136.78992110987124L82.89754036928241,-23.603204180229593L83.10756141400697,-23.44808581330047zM45.99701004108259,-110.96229391264102L73.21446923778261,-18.485310526948766L73.18588029824649,-18.731411243929188zM95.29824514276547,-136.78992110987124L83.10756141400697,-23.44808581330047L83.30012632867665,-23.27983794623446zM45.99701004108259,-110.96229391264102L73.26452161580724,-18.245607020466974L73.21446923778261,-18.485310526948766zM95.29824514276547,-136.78992110987124L83.30012632867665,-23.27983794623446L83.47445020991107,-23.099113758957177zM95.29824514276547,-136.78992110987124L83.47445020991107,-23.099113758957177L83.62984251835931,-22.906613196227546zM95.29824514276547,-136.78992110987124L83.62984251835931,-22.906613196227546L83.76567539576904,-22.70308869370673zM95.29824514276547,-136.78992110987124L83.76567539576904,-22.70308869370673L83.88139505597952,-22.48933601248876zM95.29824514276547,-136.78992110987124L83.88139505597952,-22.48933601248876L83.97652229642753,-22.266189063016814zM95.29824514276547,-136.78992110987124L83.97652229642753,-22.266189063016814L84.05068036910359,-22.034525595005594zM95.29824514276547,-136.78992110987124L84.05068036910359,-22.034525595005594L84.10354138804024,-21.79525248523642zM95.29824514276547,-136.78992110987124L84.10354138804024,-21.79525248523642L84.13489722826597,-21.549314015321297zM56.82853038770642,108.07338575998685L73.26452161580724,-18.245607020466974L45.99701004108259,-110.96229391264102zM95.29824514276547,-136.78992110987124L84.13489722826597,-21.549314015321297L121.5287821883222,112.1231307136244zM56.82853038770642,108.07338575998685L73.33585237739467,-18.013247841257364L73.26452161580724,-18.245607020466974zM73.33585237739467,-18.013247841257364L121.5287821883222,112.1231307136244L73.42819965600876,-17.789156194595755zM73.42819965600876,-17.789156194595755L121.5287821883222,112.1231307136244L73.54121441551789,-17.574219346281797zM73.54121441551789,-17.574219346281797L121.5287821883222,112.1231307136244L73.67446021477743,-17.36929528493853zM73.67446021477743,-17.36929528493853L121.5287821883222,112.1231307136244L73.82743448911728,-17.17519774414606zM73.82743448911728,-17.17519774414606L121.5287821883222,112.1231307136244L73.99954779829034,-16.992704413355575zM73.99954779829034,-16.992704413355575L121.5287821883222,112.1231307136244L74.19012826503823,-16.82254579550298zM74.19012826503823,-16.82254579550298L121.5287821883222,112.1231307136244L74.39844388616059,-16.665403874389902zM74.39844388616059,-16.665403874389902L121.5287821883222,112.1231307136244L74.62367508428255,-16.52191049788272zM84.14459576896746,-21.297679966463626L121.5287821883222,112.1231307136244L84.13489722826597,-21.549314015321297zM74.62367508428255,-16.52191049788272L121.5287821883222,112.1231307136244L74.86494219915028,-16.39264594612863zM84.13259505551561,-21.04134152744761L121.5287821883222,112.1231307136244L84.14459576896746,-21.297679966463626zM74.86494219915028,-16.39264594612863L121.5287821883222,112.1231307136244L75.12130561808083,-16.278131990743216zM84.0989098657821,-20.78131407702742L121.5287821883222,112.1231307136244L84.13259505551561,-21.04134152744761zM75.12130561808083,-16.278131990743216L121.5287821883222,112.1231307136244L75.3917492176493,-16.178832951355428zM84.04367789818612,-20.518627926379963L121.5287821883222,112.1231307136244L84.0989098657821,-20.78131407702742zM75.3917492176493,-16.178832951355428L121.5287821883222,112.1231307136244L75.67521911075026,-16.09515565653961zM83.96708906940894,-20.25432402442777L121.5287821883222,112.1231307136244L84.04367789818612,-20.518627926379963zM75.67521911075026,-16.09515565653961L121.5287821883222,112.1231307136244L75.97059044601711,-16.0274395734498zM83.86944107283095,-19.98945279980839L121.5287821883222,112.1231307136244L83.96708906940894,-20.25432402442777zM75.97059044601711,-16.0274395734498L121.5287821883222,112.1231307136244L76.27669060545655,-15.975966368558174zM83.7511121156751,-19.725067157292415L121.5287821883222,112.1231307136244L83.86944107283095,-19.98945279980839zM76.27669060545655,-15.975966368558174L121.5287821883222,112.1231307136244L76.5923196137886,-15.940949926466947zM83.61256154572828,-19.462219721367667L121.5287821883222,112.1231307136244L83.7511121156751,-19.725067157292415zM76.5923196137886,-15.940949926466947L121.5287821883222,112.1231307136244L76.91621920723642,-15.922537792471232zM83.45431993577205,-19.20195877348789L121.5287821883222,112.1231307136244L83.61256154572828,-19.462219721367667zM76.91621920723642,-15.922537792471232L121.5287821883222,112.1231307136244L77.24710523660823,-15.920813632028022zM83.2770212649565,-18.945322530048163L121.5287821883222,112.1231307136244L83.45431993577205,-19.20195877348789zM77.24710523660823,-15.920813632028022L121.5287821883222,112.1231307136244L77.58366220270625,-15.935790232993348zM83.08135490414199,-18.693335010862892L121.5287821883222,112.1231307136244L83.2770212649565,-18.945322530048163zM77.58366220270625,-15.935790232993348L121.5287821883222,112.1231307136244L77.92454965986568,-15.967417635042555zM82.86809772077788,-18.447002997392993L121.5287821883222,112.1231307136244L83.08135490414199,-18.693335010862892zM77.92454965986568,-15.967417635042555L121.5287821883222,112.1231307136244L78.2684128694114,-16.015574783378817zM82.63808806827494,-18.20731196956627L121.5287821883222,112.1231307136244L82.86809772077788,-18.447002997392993zM78.2684128694114,-16.015574783378817L121.5287821883222,112.1231307136244L78.61387342965317,-16.080076444161023zM82.39224177633773,-17.9752217364839L121.5287821883222,112.1231307136244L82.63808806827494,-18.20731196956627zM78.61387342965317,-16.080076444161023L121.5287821883222,112.1231307136244L78.95956043879158,-16.16067008174465zM82.13154122746826,-17.751659405842442L121.5287821883222,112.1231307136244L82.39224177633773,-17.9752217364839zM78.95956043879158,-16.16067008174465L121.5287821883222,112.1231307136244L79.30409136130575,-16.257037629068535zM81.8570137612039,-17.537520532178966L121.5287821883222,112.1231307136244L82.13154122746826,-17.751659405842442zM79.30409136130575,-16.257037629068535L121.5287821883222,112.1231307136244L79.6460921787,-16.368799158997476zM81.56975839897326,-17.333662047727984L121.5287821883222,112.1231307136244L81.8570137612039,-17.537520532178966zM79.6460921787,-16.368799158997476L121.5287821883222,112.1231307136244L79.98418831123135,-16.495509132613574zM81.27092481455394,-17.140900851186124L121.5287821883222,112.1231307136244L81.56975839897326,-17.333662047727984zM79.98418831123135,-16.495509132613574L121.5287821883222,112.1231307136244L80.31704228149333,-16.63666580863813zM80.96169098468874,-16.960006710721306L121.5287821883222,112.1231307136244L81.27092481455394,-17.140900851186124zM80.31704228149333,-16.63666580863813L121.5287821883222,112.1231307136244L80.64330609067584,-16.791704721994897zM80.64330609067584,-16.791704721994897L121.5287821883222,112.1231307136244L80.96169098468874,-16.960006710721306zM56.82853038770642,108.07338575998685L121.5287821883222,112.1231307136244L73.33585237739467,-18.013247841257364zM121.5287821883222,112.1231307136244L-112.92226274666312,146.6897856275171L-114.64263296829289,164.78601849717347zM-112.92226274666312,146.6897856275171L121.5287821883222,112.1231307136244L56.82853038770642,108.07338575998685z" style="fill:rgb(83,212,212)"/></svg>
