<?xml version="1.0" encoding="UTF-8"?>
<!-- Generated by jsxcad -->
<!DOCTYPE svg PUBLIC "-//W3C//DTD SVG 1.1 Tiny//EN" "http://www.w3.org/Graphics/SVG/1.1/DTD/svg11-tiny.dtd">
<svg viewBox="-250 -250 500 500" width="500" height="500" xmlns="http://www.w3.org/2000/svg"><path d="M45.99701004108259,-110.96229391264102L-91.01145623308118,-83.78555989086269L-92.12568182940751,-72.06525042480858zM-91.01145623308118,-83.78555989086269L45.99701004108259,-110.96229391264102L95.29824514276547,-136.78992110987124zM95.29824514276547,-136.78992110987124L45.99701004108259,-110.96229391264102L73.22940577130251,-19.498277147636934zM95.29824514276547,-136.78992110987124L76.36338988257545,-23.29104083738939L77.00275703158877,-23.61179925284418zM95.29824514276547,-136.78992110987124L75.75995644193064,-22.920751655339902L76.36338988257545,-23.29104083738939zM95.29824514276547,-136.78992110987124L77.00275703158877,-23.61179925284418L77.66809996180861,-23.878024186907954zM95.29824514276547,-136.78992110987124L75.20186889666464,-22.506688683887447L75.75995644193064,-22.920751655339902zM95.29824514276547,-136.78992110987124L77.66809996180861,-23.878024186907954L78.34905057290811,-24.085559276698802zM95.29824514276547,-136.78992110987124L74.69783622227902,-22.05529154519177L75.20186889666464,-22.506688683887447zM95.29824514276547,-136.78992110987124L78.34905057290811,-24.085559276698802L79.03501000025166,-24.231145715790305zM95.29824514276547,-136.78992110987124L74.25574986764404,-21.573581550863704L74.69783622227902,-22.05529154519177zM95.29824514276547,-136.78992110987124L79.03501000025166,-24.231145715790305L79.71527562852611,-24.312470378963347zM95.29824514276547,-136.78992110987124L73.88255173143938,-21.069052065251242L74.25574986764404,-21.573581550863704zM95.29824514276547,-136.78992110987124L79.71527562852611,-24.312470378963347L80.37921824267346,-24.328224310699696zM95.29824514276547,-136.78992110987124L73.5841384118776,-20.549565987418948L73.88255173143938,-21.069052065251242zM95.29824514276547,-136.78992110987124L80.37921824267346,-24.328224310699696L81.01646186634045,-24.2780936027217zM95.29824514276547,-136.78992110987124L73.36525371901476,-20.023230406800057L73.5841384118776,-20.549565987418948zM95.29824514276547,-136.78992110987124L81.01646186634045,-24.2780936027217L81.61700708532584,-24.16279262636403zM95.29824514276547,-136.78992110987124L73.22940577130251,-19.498277147636934L73.36525371901476,-20.023230406800057zM95.29824514276547,-136.78992110987124L81.61700708532584,-24.16279262636403L82.1714007285929,-23.98405331763883zM95.29824514276547,-136.78992110987124L82.1714007285929,-23.98405331763883L82.67089335772619,-23.74459440950308zM73.22940577130251,-19.498277147636934L45.99701004108259,-110.96229391264102L73.17884207824268,-18.982936911242863zM95.29824514276547,-136.78992110987124L82.67089335772619,-23.74459440950308L83.10756141400697,-23.44808581330047zM73.17884207824268,-18.982936911242863L45.99701004108259,-110.96229391264102L73.21446923778261,-18.485310526948766zM95.29824514276547,-136.78992110987124L83.10756141400697,-23.44808581330047L83.47445020991107,-23.099113758957177zM45.99701004108259,-110.96229391264102L73.33585237739467,-18.013247841257364L73.21446923778261,-18.485310526948766zM95.29824514276547,-136.78992110987124L83.47445020991107,-23.099113758957177L83.76567539576904,-22.70308869370673zM95.29824514276547,-136.78992110987124L83.76567539576904,-22.70308869370673L83.97652229642753,-22.266189063016814zM95.29824514276547,-136.78992110987124L83.97652229642753,-22.266189063016814L84.10354138804024,-21.79525248523642zM56.82853038770642,108.07338575998685L73.33585237739467,-18.013247841257364L45.99701004108259,-110.96229391264102zM95.29824514276547,-136.78992110987124L84.10354138804024,-21.79525248523642L121.5287821883222,112.1231307136244zM73.33585237739467,-18.013247841257364L121.5287821883222,112.1231307136244L73.54121441551789,-17.574219346281797zM73.54121441551789,-17.574219346281797L121.5287821883222,112.1231307136244L73.82743448911728,-17.17519774414606zM73.82743448911728,-17.17519774414606L121.5287821883222,112.1231307136244L74.19012826503823,-16.82254579550298zM74.19012826503823,-16.82254579550298L121.5287821883222,112.1231307136244L74.62367508428255,-16.52191049788272zM84.14459576896746,-21.297679966463626L121.5287821883222,112.1231307136244L84.10354138804024,-21.79525248523642zM74.62367508428255,-16.52191049788272L121.5287821883222,112.1231307136244L75.12130561808083,-16.278131990743216zM84.0989098657821,-20.78131407702742L121.5287821883222,112.1231307136244L84.14459576896746,-21.297679966463626zM75.12130561808083,-16.278131990743216L121.5287821883222,112.1231307136244L75.67521911075026,-16.09515565653961zM83.96708906940894,-20.25432402442777L121.5287821883222,112.1231307136244L84.0989098657821,-20.78131407702742zM75.67521911075026,-16.09515565653961L121.5287821883222,112.1231307136244L76.27669060545655,-15.975966368558174zM83.7511121156751,-19.725067157292415L121.5287821883222,112.1231307136244L83.96708906940894,-20.25432402442777zM76.27669060545655,-15.975966368558174L121.5287821883222,112.1231307136244L76.91621920723642,-15.922537792471232zM83.45431993577205,-19.20195877348789L121.5287821883222,112.1231307136244L83.7511121156751,-19.725067157292415zM76.91621920723642,-15.922537792471232L121.5287821883222,112.1231307136244L77.58366220270625,-15.935790232993348zM83.08135490414199,-18.693335010862892L121.5287821883222,112.1231307136244L83.45431993577205,-19.20195877348789zM77.58366220270625,-15.935790232993348L121.5287821883222,112.1231307136244L78.2684128694114,-16.015574783378817zM82.63808806827494,-18.20731196956627L121.5287821883222,112.1231307136244L83.08135490414199,-18.693335010862892zM78.2684128694114,-16.015574783378817L121.5287821883222,112.1231307136244L78.95956043879158,-16.16067008174465zM82.13154122746826,-17.751659405842442L121.5287821883222,112.1231307136244L82.63808806827494,-18.20731196956627zM78.95956043879158,-16.16067008174465L121.5287821883222,112.1231307136244L79.6460921787,-16.368799158997476zM81.56975839897326,-17.333662047727984L121.5287821883222,112.1231307136244L82.13154122746826,-17.751659405842442zM79.6460921787,-16.368799158997476L121.5287821883222,112.1231307136244L80.31704228149333,-16.63666580863813zM80.96169098468874,-16.960006710721306L121.5287821883222,112.1231307136244L81.56975839897326,-17.333662047727984zM80.31704228149333,-16.63666580863813L121.5287821883222,112.1231307136244L80.96169098468874,-16.960006710721306zM56.82853038770642,108.07338575998685L121.5287821883222,112.1231307136244L73.33585237739467,-18.013247841257364zM121.5287821883222,112.1231307136244L-112.92226274666312,146.6897856275171L-114.64263296829289,164.78601849717347zM-112.92226274666312,146.6897856275171L121.5287821883222,112.1231307136244L56.82853038770642,108.07338575998685z" style="fill:rgb(83,212,212)"/></svg>
