<?xml version="1.0" encoding="UTF-8"?>
<!-- Generated by jsxcad -->
<!DOCTYPE svg PUBLIC "-//W3C//DTD SVG 1.1 Tiny//EN" "http://www.w3.org/Graphics/SVG/1.1/DTD/svg11-tiny.dtd">
<svg viewBox="-250 -250 500 500" width="500" height="500" xmlns="http://www.w3.org/2000/svg"><path d="M-92.35984417888741,-83.40194696750589L-25.994075275222418,111.39194154387823L62.83335157570345,-127.55378840491213zM-25.994075275222418,111.39194154387823L-92.35984417888741,-83.40194696750589L-26.38656404757661,112.49841977978673zM-26.38656404757661,112.49841977978673L-92.35984417888741,-83.40194696750589L-26.53574602085656,113.59105282711397zM-92.35984417888741,-83.40194696750589L-26.43527384701013,114.62800212808618L-26.53574602085656,113.59105282711397zM97.47146050823237,-28.22384586137714L99.0887686608258,-21.558671949401123L98.36338464476135,-29.02239468813948zM96.76013024252082,-27.347185429537806L98.08227815981371,-21.876420366367125L97.47146050823237,-28.22384586137714zM98.36338464476135,-29.02239468813948L100.2169906815,-21.419471375844594L99.40192951523808,-29.712632100455806zM96.25670370044111,-26.425630551805597L97.23613471468603,-22.360019530841356L96.76013024252082,-27.347185429537806zM99.40192951523808,-29.712632100455806L101.42335879637669,-21.46457875478065L100.54765073622282,-30.268443961834553zM95.98071615469892,-25.4941845352068L96.58258044041493,-22.990397424703485L96.25670370044111,-26.425630551805597zM100.54765073622282,-30.268443961834553L102.66109801038913,-21.692534157549815L101.75714864751362,-30.66874658454065zM96.14621878952553,-23.742913980441852L95.98071615469892,-25.4941845352068L95.94321841451732,-24.5883731976777zM101.75714864751362,-30.66874658454065L103.88203779008302,-22.094670020421592L102.98457397468621,-30.8982651075118zM-116.33083351901023,165.1624621712462L-26.43527384701013,114.62800212808618L-92.35984417888741,-83.40194696750589zM102.98457397468621,-30.8982651075118L103.88203779008302,-22.094670020421592L104.18334965766606,-30.948089497115575zM95.98071615469892,-25.4941845352068L96.14621878952553,-23.742913980441852L96.58258044041493,-22.990397424703485zM104.18334965766606,-30.948089497115575L106.08573347629525,-23.35297270776907L105.30782685091658,-30.816041673877393zM96.25670370044111,-26.425630551805597L96.58258044041493,-22.990397424703485L97.23613471468603,-22.360019530841356zM105.30782685091658,-30.816041673877393L106.98269898772018,-24.16007929873699L106.31503152369835,-30.506795667762166zM96.76013024252082,-27.347185429537806L97.23613471468603,-22.360019530841356L98.08227815981371,-21.876420366367125zM106.31503152369835,-30.506795667762166L107.69472478447223,-25.04523912879064L107.16619763533092,-30.03175404626002zM97.47146050823237,-28.22384586137714L98.08227815981371,-21.876420366367125L99.0887686608258,-21.558671949401123zM107.16619763533092,-30.03175404626002L108.19441852338313,-25.973949733775267L107.82834290191803,-29.4086834071974zM98.36338464476135,-29.02239468813948L99.0887686608258,-21.558671949401123L100.2169906815,-21.419471375844594zM107.82834290191803,-29.4086834071974L108.46280721534588,-26.910112526687826L108.2755492737696,-28.661111255855086zM99.40192951523808,-29.712632100455806L100.2169906815,-21.419471375844594L101.42335879637669,-21.46457875478065zM100.54765073622282,-30.268443961834553L101.42335879637669,-21.46457875478065L102.66109801038913,-21.692534157549815zM108.2755492737696,-28.661111255855086L108.46280721534588,-26.910112526687826L108.4899974487578,-27.817486873619583zM101.75714864751362,-30.66874658454065L102.66109801038913,-21.692534157549815L103.88203779008302,-22.094670020421592zM107.82834290191803,-29.4086834071974L108.19441852338313,-25.973949733775267L108.46280721534588,-26.910112526687826zM107.16619763533092,-30.03175404626002L107.69472478447223,-25.04523912879064L108.19441852338313,-25.973949733775267zM104.18334965766606,-30.948089497115575L105.03861010788638,-22.65542793409128L106.08573347629525,-23.35297270776907zM104.18334965766606,-30.948089497115575L103.88203779008302,-22.094670020421592L105.03861010788638,-22.65542793409128zM106.31503152369835,-30.506795667762166L106.98269898772018,-24.16007929873699L107.69472478447223,-25.04523912879064zM105.30782685091658,-30.816041673877393L106.08573347629525,-23.35297270776907L106.98269898772018,-24.16007929873699zM62.83335157570345,-127.55378840491213L-22.422773671126393,107.64279090771149L-21.200703734336027,107.05261265945038zM62.83335157570345,-127.55378840491213L-23.553400375176285,108.40307537718758L-22.422773671126393,107.64279090771149zM62.83335157570345,-127.55378840491213L-21.200703734336027,107.05261265945038L-19.93345850474048,106.65490776976215zM62.83335157570345,-127.55378840491213L-24.549711074966122,109.3047414403138L-23.553400375176285,108.40307537718758zM62.83335157570345,-127.55378840491213L-19.93345850474048,106.65490776976215L-18.66902726385557,106.464875626694zM62.83335157570345,-127.55378840491213L-25.37378867475307,110.31375016860376L-24.549711074966122,109.3047414403138zM62.83335157570345,-127.55378840491213L-18.66902726385557,106.464875626694L-17.455383977759098,106.48997858260265zM62.83335157570345,-127.55378840491213L-25.994075275222418,111.39194154387823L-25.37378867475307,110.31375016860376zM62.83335157570345,-127.55378840491213L-17.455383977759098,106.48997858260265L-16.338737198203116,106.72961593749437zM62.83335157570345,-127.55378840491213L-16.338737198203116,106.72961593749437L-15.361820157555448,107.17512368234188zM62.83335157570345,-127.55378840491213L-15.361820157555448,107.17512368234188L-14.562276045602507,107.81000119604876zM62.83335157570345,-127.55378840491213L-14.562276045602507,107.81000119604876L-13.971194739528741,108.61045150051075zM62.83335157570345,-127.55378840491213L-13.971194739528741,108.61045150051075L-13.611868076056995,109.5462273195785zM62.83335157570345,-127.55378840491213L-13.611868076056995,109.5462273195785L-13.498807523440004,110.58168065046145zM62.83335157570345,-127.55378840491213L-13.498807523440004,110.58168065046145L79.95552694202685,121.39337039097151zM-26.43527384701013,114.62800212808618L-116.33083351901023,165.1624621712462L-26.088294038305552,115.56935264023429zM-26.088294038305552,115.56935264023429L-116.33083351901023,165.1624621712462L-25.50743844340827,116.37861428353135zM-25.50743844340827,116.37861428353135L-116.33083351901023,165.1624621712462L-24.714441962938892,117.02417173024506zM-24.714441962938892,117.02417173024506L-116.33083351901023,165.1624621712462L-23.739397616116506,117.4806396742906zM-23.739397616116506,117.4806396742906L-116.33083351901023,165.1624621712462L-22.6196636915772,117.7298248604265zM-13.637075684670354,111.67711564744876L79.95552694202685,121.39337039097151L-13.498807523440004,110.58168065046145zM-14.021987059953567,112.79028139814923L79.95552694202685,121.39337039097151L-13.637075684670354,111.67711564744876zM-22.6196636915772,117.7298248604265L-116.33083351901023,165.1624621712462L79.95552694202685,121.39337039097151zM-14.639186236902763,113.8780205067662L79.95552694202685,121.39337039097151L-14.021987059953567,112.79028139814923zM-22.6196636915772,117.7298248604265L79.95552694202685,121.39337039097151L-21.398443211524558,117.76160901618634zM-15.465136391042087,114.89798365466272L79.95552694202685,121.39337039097151L-14.639186236902763,113.8780205067662zM-21.398443211524558,117.76160901618634L79.95552694202685,121.39337039097151L-20.12309824174356,117.57439298975082zM-16.467994678014442,115.81035627413077L79.95552694202685,121.39337039097151L-15.465136391042087,114.89798365466272zM-20.12309824174356,117.57439298975082L79.95552694202685,121.39337039097151L-18.843264271403218,117.17519151739539zM-17.60884717987413,116.57944502879333L79.95552694202685,121.39337039097151L-16.467994678014442,115.81035627413077zM-18.843264271403218,117.17519151739539L79.95552694202685,121.39337039097151L-17.60884717987413,116.57944502879333z" style="fill:rgb(83,212,212)"/></svg>
