<?xml version="1.0" encoding="UTF-8"?>
<!-- Generated by jsxcad -->
<!DOCTYPE svg PUBLIC "-//W3C//DTD SVG 1.1 Tiny//EN" "http://www.w3.org/Graphics/SVG/1.1/DTD/svg11-tiny.dtd">
<svg viewBox="-250 -250 500 500" width="500" height="500" xmlns="http://www.w3.org/2000/svg"><path d="M45.99701004108259,-110.96229391264102L-91.01145623308118,-83.78555989086269L-92.12568182940751,-72.06525042480858zM-91.01145623308118,-83.78555989086269L45.99701004108259,-110.96229391264102L95.29824514276547,-136.78992110987124zM95.29824514276547,-136.78992110987124L45.99701004108259,-110.96229391264102L79.9974372942105,-21.241378360124042zM95.29824514276547,-136.78992110987124L83.12260983925518,-25.036768741516347L83.76307854642926,-25.35806411655976zM95.29824514276547,-136.78992110987124L82.51856948978352,-24.665968536913656L83.12260983925518,-25.036768741516347zM95.29824514276547,-136.78992110987124L83.76307854642926,-25.35806411655976L84.43000042076437,-25.62485430774597zM95.29824514276547,-136.78992110987124L81.960378950396,-24.25143631749138L82.51856948978352,-24.665968536913656zM95.29824514276547,-136.78992110987124L84.43000042076437,-25.62485430774597L85.11298338893543,-25.83296627916878zM95.29824514276547,-136.78992110987124L81.45674881996524,-23.79961888319466L81.960378950396,-24.25143631749138zM95.29824514276547,-136.78992110987124L85.11298338893543,-25.83296627916878L85.80139720576874,-25.979132225646687zM95.29824514276547,-136.78992110987124L81.01556445646636,-23.317537274229856L81.45674881996524,-23.79961888319466zM95.29824514276547,-136.78992110987124L85.80139720576874,-25.979132225646687L86.48449602108096,-26.06103799878076zM95.29824514276547,-136.78992110987124L80.64375399856428,-22.81269589123608L81.01556445646636,-23.317537274229856zM95.29824514276547,-136.78992110987124L86.48449602108096,-26.06103799878076L87.15162293338729,-26.07735478935096zM95.29824514276547,-136.78992110987124L80.3471928038959,-22.292961052599953L80.64375399856428,-22.81269589123608zM95.29824514276547,-136.78992110987124L87.15162293338729,-26.07735478935096L87.7923366047249,-26.027767819696056zM95.29824514276547,-136.78992110987124L80.13059626916171,-21.76644366367157L80.3471928038959,-22.292961052599953zM95.29824514276547,-136.78992110987124L87.7923366047249,-26.027767819696056L88.39658913177902,-25.912982811462715zM95.29824514276547,-136.78992110987124L79.9974372942105,-21.241378360124042L80.13059626916171,-21.76644366367157zM95.29824514276547,-136.78992110987124L88.39658913177902,-25.912982811462715L88.95486970841442,-25.734718121294875zM95.29824514276547,-136.78992110987124L88.95486970841442,-25.734718121294875L89.45836784338455,-25.49568472500235zM79.9974372942105,-21.241378360124042L45.99701004108259,-110.96229391264102L79.94992192920438,-20.72599761076618zM95.29824514276547,-136.78992110987124L89.45836784338455,-25.49568472500235L89.89909749984547,-25.199553766100802zM79.94992192920438,-20.72599761076618L45.99701004108259,-110.96229391264102L79.98890959869223,-20.22840293613397zM95.29824514276547,-136.78992110987124L89.89909749984547,-25.199553766100802L90.27003998748778,-24.850894518370566zM45.99701004108259,-110.96229391264102L80.11391325732549,-19.756443790068527L79.98890959869223,-20.22840293613397zM95.29824514276547,-136.78992110987124L90.27003998748778,-24.850894518370566L90.56524693439921,-24.455123024207246zM95.29824514276547,-136.78992110987124L90.56524693439921,-24.455123024207246L90.77994054725532,-24.01840410032695zM95.29824514276547,-136.78992110987124L90.77994054725532,-24.01840410032695L90.91061542373008,-23.547579029286883zM45.99701004108259,-110.96229391264102L121.5287821883222,112.1231307136244L80.11391325732549,-19.756443790068527zM95.29824514276547,-136.78992110987124L90.91061542373008,-23.547579029286883L121.5287821883222,112.1231307136244zM80.11391325732549,-19.756443790068527L121.5287821883222,112.1231307136244L80.32309945282961,-19.317589188131443zM80.32309945282961,-19.317589188131443L121.5287821883222,112.1231307136244L80.61328752978666,-18.918809278920357zM80.61328752978666,-18.918809278920357L121.5287821883222,112.1231307136244L80.98003092731747,-18.56646322586604zM80.98003092731747,-18.56646322586604L121.5287821883222,112.1231307136244L81.41764522901282,-18.26619342775463zM90.95506602033788,-23.050040273960683L121.5287821883222,112.1231307136244L90.91061542373008,-23.547579029286883zM81.41764522901282,-18.26619342775463L121.5287821883222,112.1231307136244L81.9192969119001,-18.022834505953252zM90.91246167148034,-22.533637657543693L121.5287821883222,112.1231307136244L90.95506602033788,-23.050040273960683zM81.9192969119001,-18.022834505953252L121.5287821883222,112.1231307136244L82.4771210446877,-17.84032534108216zM90.78336958650162,-22.006535661958175L121.5287821883222,112.1231307136244L90.91246167148034,-22.533637657543693zM82.4771210446877,-17.84032534108216L121.5287821883222,112.1231307136244L83.08233095167411,-17.721643727030457zM90.56971852791018,-21.47709460847548L121.5287821883222,112.1231307136244L90.78336958650162,-22.006535661958175zM56.82853038770642,108.07338575998685L121.5287821883222,112.1231307136244L45.99701004108259,-110.96229391264102zM83.08233095167411,-17.721643727030457L121.5287821883222,112.1231307136244L83.72536605522099,-17.66875545753598zM90.27481264761481,-20.95373294345442L121.5287821883222,112.1231307136244L90.56971852791018,-21.47709460847548zM83.72536605522099,-17.66875545753598L121.5287821883222,112.1231307136244L84.39602685835285,-17.68257362573562zM89.90326286799905,-20.444790697396805L121.5287821883222,112.1231307136244L90.27481264761481,-20.95373294345442zM84.39602685835285,-17.68257362573562L121.5287821883222,112.1231307136244L85.08365581200653,-17.762936561468283zM89.46091813419254,-19.958390705529833L121.5287821883222,112.1231307136244L89.90326286799905,-20.444790697396805zM85.08365581200653,-17.762936561468283L121.5287821883222,112.1231307136244L85.7772951771039,-17.908617669815786zM88.95478456933556,-19.502304664549264L121.5287821883222,112.1231307136244L89.46091813419254,-19.958390705529833zM85.7772951771039,-17.908617669815786L121.5287821883222,112.1231307136244L86.46589204674619,-18.117329299990722zM88.39289942030618,-19.083828408052792L121.5287821883222,112.1231307136244L88.95478456933556,-19.502304664549264zM86.46589204674619,-18.117329299990722L121.5287821883222,112.1231307136244L87.13844245162564,-18.385766054840587zM87.78421611746148,-18.70965527100947L121.5287821883222,112.1231307136244L88.39289942030618,-19.083828408052792zM87.13844245162564,-18.385766054840587L121.5287821883222,112.1231307136244L87.78421611746148,-18.70965527100947zM121.5287821883222,112.1231307136244L-112.92226274666312,146.6897856275171L-114.64263296829289,164.78601849717347zM-112.92226274666312,146.6897856275171L121.5287821883222,112.1231307136244L56.82853038770642,108.07338575998685z" style="fill:rgb(83,212,212)"/></svg>
