<?xml version="1.0" encoding="UTF-8"?>
<!-- Generated by jsxcad -->
<!DOCTYPE svg PUBLIC "-//W3C//DTD SVG 1.1 Tiny//EN" "http://www.w3.org/Graphics/SVG/1.1/DTD/svg11-tiny.dtd">
<svg viewBox="-250 -250 500 500" width="500" height="500" xmlns="http://www.w3.org/2000/svg"><path d="M-92.35984417888741,-83.40194696750589L-26.179473005440183,111.8334938102746L62.83335157570345,-127.55378840491213zM-26.179473005440183,111.8334938102746L-92.35984417888741,-83.40194696750589L-26.30069034020595,112.18817966878323zM-26.30069034020595,112.18817966878323L-92.35984417888741,-83.40194696750589L-26.397275102150452,112.54267278799526zM-26.397275102150452,112.54267278799526L-92.35984417888741,-83.40194696750589L-26.46882950349659,112.89556433007102zM-26.46882950349659,112.89556433007102L-92.35984417888741,-83.40194696750589L-26.515054229187925,113.24548993212407zM-26.515054229187925,113.24548993212407L-92.35984417888741,-83.40194696750589L-26.53574602085656,113.59105282711397zM-92.35984417888741,-83.40194696750589L-26.53079757483528,113.93090046049662L-26.53574602085656,113.59105282711397zM-92.35984417888741,-83.40194696750589L-26.500209011601147,114.26369001301377L-26.53079757483528,113.93090046049662zM-92.35984417888741,-83.40194696750589L-26.44407729332753,114.58809651086216L-26.500209011601147,114.26369001301377zM-92.35984417888741,-83.40194696750589L-26.362597526677142,114.90285594604543L-26.44407729332753,114.58809651086216zM96.68828456754368,-27.238290739178474L97.14698308885556,-22.428354060240338L96.88653277300254,-27.52720774890663zM97.34471232433408,-28.087995156909138L98.23347360241024,-21.814026877804224L97.60283989931013,-28.357688571957638zM97.10563188913336,-27.810808271303724L97.93519457644409,-21.943075152158073L97.34471232433408,-28.087995156909138zM97.60283989931013,-28.357688571957638L98.547628665198,-21.702264534381825L97.87899754664495,-28.61884104047533zM96.88653277300254,-27.52720774890663L97.65396688305833,-22.0888839269003L97.10563188913336,-27.810808271303724zM97.87899754664495,-28.61884104047533L98.87641622004513,-21.608246488511078L98.17209731445382,-28.87043402030979zM98.17209731445382,-28.87043402030979L99.2185511306921,-21.53236108509504L98.48100441755102,-29.11149893942243zM96.51166235437748,-26.945190610388902L97.14698308885556,-22.428354060240338L96.68828456754368,-27.238290739178474zM98.48100441755102,-29.11149893942243L99.57267347816467,-21.47492118542056L98.80450596966963,-29.341092255942947zM96.3573835813552,-26.649043575450044L96.92319955987996,-22.620642695481095L96.51166235437748,-26.945190610388902zM98.80450596966963,-29.341092255942947L99.9373765009227,-21.436169194449906L99.14133566599315,-29.558328973075437zM96.22605279019973,-26.35100736284103L96.72041769588323,-22.82695591508351L96.3573835813552,-26.649043575450044zM99.14133566599315,-29.558328973075437L100.31122903484706,-21.416270088688815L99.49019740491771,-29.762357687428146zM96.11819910167956,-26.05224638739795L96.5394089729397,-23.046464631579052L96.22605279019973,-26.35100736284103zM99.49019740491771,-29.762357687428146L100.69272923685455,-21.415316417947793L99.8497164074101,-29.952391077589585zM96.03426333515458,-25.75392880019261L96.38086957044054,-23.27829246489688L96.11819910167956,-26.05224638739795zM99.8497164074101,-29.952391077589585L101.08035856537606,-21.433319964219656L100.21849324143652,-30.127687076769835zM95.97459904482615,-25.45722397509151L96.2454081367386,-23.521511295557012L96.03426333515458,-25.75392880019261zM100.21849324143652,-30.127687076769835L101.47258940545534,-21.47022104922462L100.5951104416082,-30.28756117666256zM95.93944097813093,-25.163294857662283L96.13354589253369,-23.77515524644677L95.97459904482615,-25.45722397509151zM100.5951104416082,-30.28756117666256L101.86783685278759,-21.525879286909575L100.97808223530323,-30.43139517142404zM95.92896698341092,-24.873296798266484L96.04568559249255,-24.038214531324876L95.93944097813093,-25.163294857662283zM100.97808223530323,-30.43139517142404L102.26453814207689,-21.600080908885552L101.3659344731412,-30.55862499098306zM95.98217328753073,-24.3096447838282L95.92896698341092,-24.873296798266484L95.94321841451732,-24.5883731976777zM101.3659344731412,-30.55862499098306L102.66109801038913,-21.692534157549815L101.75714864751362,-30.66874658454065zM101.75714864751362,-30.66874658454065L103.05593385609791,-21.802878817385196L102.15020523466389,-30.76133143662784zM95.92896698341092,-24.873296798266484L95.98217328753073,-24.3096447838282L96.04568559249255,-24.038214531324876zM102.15020523466389,-30.76133143662784L103.44746258707356,-21.930673581443884L102.54356983332924,-30.83601392981694zM95.93944097813093,-25.163294857662283L96.04568559249255,-24.038214531324876L96.13354589253369,-23.77515524644677zM102.54356983332924,-30.83601392981694L103.83411988804185,-22.0754146782237L102.93571293830317,-30.8924949627787zM95.97459904482615,-25.45722397509151L96.13354589253369,-23.77515524644677L96.2454081367386,-23.521511295557012zM-116.33083351901023,165.1624621712462L-26.362597526677142,114.90285594604543L-92.35984417888741,-83.40194696750589zM102.93571293830317,-30.8924949627787L104.2143612717502,-22.236522162922792L103.32510820595863,-30.93054772043305zM96.03426333515458,-25.75392880019261L96.2454081367386,-23.521511295557012L96.38086957044054,-23.27829246489688zM103.32510820595863,-30.93054772043305L104.58666220933151,-22.413355410262167L103.7102336046761,-30.950015157859447zM96.11819910167956,-26.05224638739795L96.38086957044054,-23.27829246489688L96.5394089729397,-23.046464631579052zM103.7102336046761,-30.950015157859447L104.94953710141684,-22.60520707832969L104.08958886782872,-30.950809946203332zM96.22605279019973,-26.35100736284103L96.5394089729397,-23.046464631579052L96.72041769588323,-22.82695591508351zM104.08958886782872,-30.950809946203332L105.30152208741873,-22.811308128633094L104.46167726473371,-30.932923969920214zM96.3573835813552,-26.649043575450044L96.72041769588323,-22.82695591508351L96.92319955987996,-22.620642695481095zM104.46167726473371,-30.932923969920214L105.30152208741873,-22.811308128633094L104.82504258558627,-30.89640720442816zM96.51166235437748,-26.945190610388902L96.92319955987996,-22.620642695481095L97.14698308885556,-22.428354060240338zM104.82504258558627,-30.89640720442816L105.96725559570956,-23.26290119320045L105.17826940872608,-30.84139873772506zM96.88653277300254,-27.52720774890663L97.14698308885556,-22.428354060240338L97.39088565743432,-22.250862641001973zM105.17826940872608,-30.84139873772506L106.27835724257798,-23.506583338112925L105.5199705230415,-30.768099388234113zM96.88653277300254,-27.52720774890663L97.39088565743432,-22.250862641001973L97.65396688305833,-22.0888839269003zM105.5199705230415,-30.768099388234113L106.57324927718994,-23.760901464137405L105.84877530335318,-30.676781405687535zM97.10563188913336,-27.810808271303724L97.65396688305833,-22.0888839269003L97.93519457644409,-21.943075152158073zM105.84877530335318,-30.676781405687535L106.85078735746536,-24.02483490453998L106.16341571492583,-30.5677918830138zM97.34471232433408,-28.087995156909138L97.93519457644409,-21.943075152158073L98.23347360241024,-21.814026877804224zM106.16341571492583,-30.5677918830138L107.1098488838541,-24.29732726572558L106.46262891013104,-30.441541019153657zM97.60283989931013,-28.357688571957638L98.23347360241024,-21.814026877804224L98.547628665198,-21.702264534381825zM106.46262891013104,-30.441541019153657L107.34942093467458,-24.57728395439067L106.74524288624377,-30.29851462522419zM97.87899754664495,-28.61884104047533L98.547628665198,-21.702264534381825L98.87641622004513,-21.608246488511078zM106.74524288624377,-30.29851462522419L107.5685493598037,-24.863586051355878L107.01012888994403,-30.13925950654671zM98.17209731445382,-28.87043402030979L98.87641622004513,-21.608246488511078L99.2185511306921,-21.53236108509504zM107.01012888994403,-30.13925950654671L107.76635151605608,-25.155087618984417L107.25621351827036,-29.964386761422325zM98.48100441755102,-29.11149893942243L99.2185511306921,-21.53236108509504L99.57267347816467,-21.47492118542056zM107.25621351827036,-29.964386761422325L107.94207801597446,-25.450620655779993L107.48254084229897,-29.77457223540869zM107.48254084229897,-29.77457223540869L108.09502557829624,-25.74900605935389L107.68818773948453,-29.570550994694194zM98.80450596966963,-29.341092255942947L99.57267347816467,-21.47492118542056L99.9373765009227,-21.436169194449906zM107.68818773948453,-29.570550994694194L108.22459803045592,-26.049052213890786L107.87232546911947,-29.353111421729114zM99.14133566599315,-29.558328973075437L99.9373765009227,-21.436169194449906L100.31122903484706,-21.416270088688815zM107.87232546911947,-29.353111421729114L108.33029443351158,-26.349563122664822L108.03420850693718,-29.12310185497176zM99.49019740491771,-29.762357687428146L100.31122903484706,-21.416270088688815L100.69272923685455,-21.415316417947793zM108.03420850693718,-29.12310185497176L108.41171992549053,-26.649342963811385L108.17318769018513,-28.881418666447146zM99.8497164074101,-29.952391077589585L100.69272923685455,-21.415316417947793L101.08035856537606,-21.433319964219656zM108.17318769018513,-28.881418666447146L108.46856078499226,-26.947199376697082L108.28868631109943,-28.62900656347369zM100.21849324143652,-30.127687076769835L101.08035856537606,-21.433319964219656L101.47258940545534,-21.47022104922462zM108.28868631109943,-28.62900656347369L108.50060849125818,-27.241949721923145L108.38022576965585,-28.366855870394904zM100.5951104416082,-30.28756117666256L101.47258940545534,-21.47022104922462L101.86783685278759,-21.525879286909575zM108.38022576965585,-28.366855870394904L108.50775841638414,-27.532430219167516L108.4474269653771,-28.095993696168783zM100.97808223530323,-30.43139517142404L101.86783685278759,-21.525879286909575L102.26453814207689,-21.600080908885552zM101.3659344731412,-30.55862499098306L102.26453814207689,-21.600080908885552L102.66109801038913,-21.692534157549815zM108.4474269653771,-28.095993696168783L108.50775841638414,-27.532430219167516L108.4899974487578,-27.817486873619583zM101.75714864751362,-30.66874658454065L102.66109801038913,-21.692534157549815L103.05593385609791,-21.802878817385196zM108.38022576965585,-28.366855870394904L108.50060849125818,-27.241949721923145L108.50775841638414,-27.532430219167516zM102.15020523466389,-30.76133143662784L103.05593385609791,-21.802878817385196L103.44746258707356,-21.930673581443884zM108.28868631109943,-28.62900656347369L108.46856078499226,-26.947199376697082L108.50060849125818,-27.241949721923145zM102.54356983332924,-30.83601392981694L103.44746258707356,-21.930673581443884L103.83411988804185,-22.0754146782237zM108.17318769018513,-28.881418666447146L108.41171992549053,-26.649342963811385L108.46856078499226,-26.947199376697082zM102.93571293830317,-30.8924949627787L103.83411988804185,-22.0754146782237L104.2143612717502,-22.236522162922792zM108.03420850693718,-29.12310185497176L108.33029443351158,-26.349563122664822L108.41171992549053,-26.649342963811385zM103.32510820595863,-30.93054772043305L104.2143612717502,-22.236522162922792L104.58666220933151,-22.413355410262167zM107.87232546911947,-29.353111421729114L108.22459803045592,-26.049052213890786L108.33029443351158,-26.349563122664822zM103.7102336046761,-30.950015157859447L104.58666220933151,-22.413355410262167L104.94953710141684,-22.60520707832969zM107.68818773948453,-29.570550994694194L108.09502557829624,-25.74900605935389L108.22459803045592,-26.049052213890786zM104.08958886782872,-30.950809946203332L104.94953710141684,-22.60520707832969L105.30152208741873,-22.811308128633094zM107.48254084229897,-29.77457223540869L107.94207801597446,-25.450620655779993L108.09502557829624,-25.74900605935389zM107.25621351827036,-29.964386761422325L107.76635151605608,-25.155087618984417L107.94207801597446,-25.450620655779993zM104.82504258558627,-30.89640720442816L105.64121034771496,-23.03083220487575L105.96725559570956,-23.26290119320045zM107.01012888994403,-30.13925950654671L107.5685493598037,-24.863586051355878L107.76635151605608,-25.155087618984417zM105.17826940872608,-30.84139873772506L105.96725559570956,-23.26290119320045L106.27835724257798,-23.506583338112925zM104.82504258558627,-30.89640720442816L105.30152208741873,-22.811308128633094L105.64121034771496,-23.03083220487575zM106.74524288624377,-30.29851462522419L107.34942093467458,-24.57728395439067L107.5685493598037,-24.863586051355878zM105.5199705230415,-30.768099388234113L106.27835724257798,-23.506583338112925L106.57324927718994,-23.760901464137405zM106.46262891013104,-30.441541019153657L107.1098488838541,-24.29732726572558L107.34942093467458,-24.57728395439067zM105.84877530335318,-30.676781405687535L106.57324927718994,-23.760901464137405L106.85078735746536,-24.02483490453998zM106.16341571492583,-30.5677918830138L106.85078735746536,-24.02483490453998L107.1098488838541,-24.29732726572558zM62.83335157570345,-127.55378840491213L-22.327776983720476,107.58897711254768L-21.942385963879985,107.38490146384498zM62.83335157570345,-127.55378840491213L-21.942385963879985,107.38490146384498L-21.549474051199315,107.19929644095555zM62.83335157570345,-127.55378840491213L-22.704148750966556,107.81072750848027L-22.327776983720476,107.58897711254768zM62.83335157570345,-127.55378840491213L-21.549474051199315,107.19929644095555L-21.150564975639014,107.03287992782661zM62.83335157570345,-127.55378840491213L-23.07003453859013,108.04929232813389L-22.704148750966556,107.81072750848027zM62.83335157570345,-127.55378840491213L-21.150564975639014,107.03287992782661L-20.74721307509695,106.88631099961908zM62.83335157570345,-127.55378840491213L-23.42401121995734,108.30375623917776L-23.07003453859013,108.04929232813389zM62.83335157570345,-127.55378840491213L-20.74721307509695,106.88631099961908L-20.340984493056645,106.76015276615624zM62.83335157570345,-127.55378840491213L-23.7647015252029,108.57311400761057L-23.42401121995734,108.30375623917776zM62.83335157570345,-127.55378840491213L-20.340984493056645,106.76015276615624L-19.93345850474048,106.65490776976215zM62.83335157570345,-127.55378840491213L-24.090774754379055,108.8563395434661L-23.7647015252029,108.57311400761057zM62.83335157570345,-127.55378840491213L-19.93345850474048,106.65490776976215L-19.526220944740995,106.57098475496213zM62.83335157570345,-127.55378840491213L-24.4009582326553,109.15232134642928L-24.090774754379055,108.8563395434661zM62.83335157570345,-127.55378840491213L-19.526220944740995,106.57098475496213L-19.120856838020398,106.5087247380788zM62.83335157570345,-127.55378840491213L-24.6940401745403,109.45992043592857L-24.4009582326553,109.15232134642928zM62.83335157570345,-127.55378840491213L-19.120856838020398,106.5087247380788L-18.71894564175659,106.4683689995314zM62.83335157570345,-127.55378840491213L-24.96886946133803,109.77794372416506L-24.6940401745403,109.45992043592857zM62.83335157570345,-127.55378840491213L-18.71894564175659,106.4683689995314L-18.322052235035024,106.45009818383666zM62.83335157570345,-127.55378840491213L-25.22436890348322,110.10514497806618L-24.96886946133803,109.77794372416506zM62.83335157570345,-127.55378840491213L-18.322052235035024,106.45009818383666L-17.931728373484876,106.45397916317214zM62.83335157570345,-127.55378840491213L-25.459530221789542,110.44027033310215L-25.22436890348322,110.10514497806618zM62.83335157570345,-127.55378840491213L-17.931728373484876,106.45397916317214L-17.549499313029102,106.48001396122119zM62.83335157570345,-127.55378840491213L-25.673428435884663,110.78200402625497L-25.459530221789542,110.44027033310215zM62.83335157570345,-127.55378840491213L-17.549499313029102,106.48001396122119L-17.1768610614161,106.52811462532581zM62.83335157570345,-127.55378840491213L-25.865211029989585,111.12902326019628L-25.673428435884663,110.78200402625497zM62.83335157570345,-127.55378840491213L-17.1768610614161,106.52811462532581L-16.815274278409685,106.59811085285533zM62.83335157570345,-127.55378840491213L-26.034119191827806,111.47997746667662L-25.865211029989585,111.12902326019628zM62.83335157570345,-127.55378840491213L-16.815274278409685,106.59811085285533L-16.466159223675806,106.68974110397137zM62.83335157570345,-127.55378840491213L-26.179473005440183,111.8334938102746L-26.034119191827806,111.47997746667662zM62.83335157570345,-127.55378840491213L-16.466159223675806,106.68974110397137L-16.13088822481428,106.80266874472193zM62.83335157570345,-127.55378840491213L-16.13088822481428,106.80266874472193L-15.81078533993217,106.93645272334052zM62.83335157570345,-127.55378840491213L-15.81078533993217,106.93645272334052L-15.50711540447939,107.09059651658184zM62.83335157570345,-127.55378840491213L-15.50711540447939,107.09059651658184L-15.221080499783946,107.26451355209021zM62.83335157570345,-127.55378840491213L-15.221080499783946,107.26451355209021L-14.953819963763975,107.45753403240514zM62.83335157570345,-127.55378840491213L-14.953819963763975,107.45753403240514L-14.706397006699287,107.66891698568392zM62.83335157570345,-127.55378840491213L-14.706397006699287,107.66891698568392L-14.479802447000802,107.89785461500148zM62.83335157570345,-127.55378840491213L-14.479802447000802,107.89785461500148L-14.27494712963811,108.14345331586982zM62.83335157570345,-127.55378840491213L-14.27494712963811,108.14345331586982L-14.092655782812972,108.40476504523892zM62.83335157570345,-127.55378840491213L-14.092655782812972,108.40476504523892L-13.933669679646854,108.68077835962922zM62.83335157570345,-127.55378840491213L-13.933669679646854,108.68077835962922L-13.798635561242035,108.97041149013003zM62.83335157570345,-127.55378840491213L-13.798635561242035,108.97041149013003L-13.688109857579423,109.2725425148085zM62.83335157570345,-127.55378840491213L-13.688109857579423,109.2725425148085L-13.602552691356609,109.58598453449027zM62.83335157570345,-127.55378840491213L-13.602552691356609,109.58598453449027L-13.542325726026773,109.90951143188204zM62.83335157570345,-127.55378840491213L-13.542325726026773,109.90951143188204L-13.507690345902867,110.24184697487871zM62.83335157570345,-127.55378840491213L-13.507690345902867,110.24184697487871L-13.498807523440004,110.58168065046145zM62.83335157570345,-127.55378840491213L-13.498807523440004,110.58168065046145L79.95552694202685,121.39337039097151zM-26.362597526677142,114.90285594604543L-116.33083351901023,165.1624621712462L-26.25606722762763,115.20671491249215zM-26.25606722762763,115.20671491249215L-116.33083351901023,165.1624621712462L-26.124885800804638,115.49845270340717zM-26.124885800804638,115.49845270340717L-116.33083351901023,165.1624621712462L-25.969544977106864,115.77690121665673zM-25.969544977106864,115.77690121665673L-116.33083351901023,165.1624621712462L-25.79063963364077,116.04096646545128zM-25.79063963364077,116.04096646545128L-116.33083351901023,165.1624621712462L-25.58885109576333,116.28956732815651zM-25.58885109576333,116.28956732815651L-116.33083351901023,165.1624621712462L-25.364962362619,116.52172815628822zM-25.364962362619,116.52172815628822L-116.33083351901023,165.1624621712462L-25.11983656282598,116.73649779495577zM-25.11983656282598,116.73649779495577L-116.33083351901023,165.1624621712462L-24.854430103659087,116.9330086005458zM-24.854430103659087,116.9330086005458L-116.33083351901023,165.1624621712462L-24.56977682628709,117.11048415107435zM-24.56977682628709,117.11048415107435L-116.33083351901023,165.1624621712462L-24.26699429909229,117.2681788154574zM-24.26699429909229,117.2681788154574L-116.33083351901023,165.1624621712462L-23.947270772924753,117.40545738606905zM-23.947270772924753,117.40545738606905L-116.33083351901023,165.1624621712462L-23.611864682588944,117.52176613259992zM-23.611864682588944,117.52176613259992L-116.33083351901023,165.1624621712462L-23.262102767791234,117.61661347676505zM-23.262102767791234,117.61661347676505L-116.33083351901023,165.1624621712462L-22.899366998962417,117.68960257861895zM-22.899366998962417,117.68960257861895L-116.33083351901023,165.1624621712462L-22.525094495369228,117.74043993192645zM-22.525094495369228,117.74043993192645L-116.33083351901023,165.1624621712462L-22.140774851122153,117.76891803576964zM-13.515736519739967,110.92768740345402L79.95552694202685,121.39337039097151L-13.498807523440004,110.58168065046145zM-13.558432202802551,111.27847694721254L79.95552694202685,121.39337039097151L-13.515736519739967,110.92768740345402zM-13.62674681995907,111.63267088202848L79.95552694202685,121.39337039097151L-13.558432202802551,111.27847694721254zM-13.720430574965732,111.98887120630677L79.95552694202685,121.39337039097151L-13.62674681995907,111.63267088202848zM-13.839131414422797,112.34565526251683L79.95552694202685,121.39337039097151L-13.720430574965732,111.98887120630677zM-13.982395418239252,112.70160163434157L79.95552694202685,121.39337039097151L-13.839131414422797,112.34565526251683zM-14.149669237522168,113.05527931050811L79.95552694202685,121.39337039097151L-13.982395418239252,112.70160163434157zM-22.140774851122153,117.76891803576964L-116.33083351901023,165.1624621712462L79.95552694202685,121.39337039097151zM-14.340304532729766,113.40529869750485L79.95552694202685,121.39337039097151L-14.149669237522168,113.05527931050811zM-14.553553998576655,113.75024870935559L79.95552694202685,121.39337039097151L-14.340304532729766,113.40529869750485zM-14.788581877132986,114.08876250666081L79.95552694202685,121.39337039097151L-14.553553998576655,113.75024870935559zM-22.140774851122153,117.76891803576964L79.95552694202685,121.39337039097151L-21.747937027529133,117.77487752259037zM-15.044460471959717,114.41946424712589L79.95552694202685,121.39337039097151L-14.788581877132986,114.08876250666081zM-21.747937027529133,117.77487752259037L79.95552694202685,121.39337039097151L-21.34814277438248,117.7583147553037zM-15.320177111872535,114.74102527528295L79.95552694202685,121.39337039097151L-15.044460471959717,114.41946424712589zM-21.34814277438248,117.7583147553037L79.95552694202685,121.39337039097151L-20.942990887331867,117.71926079377789zM-15.614640622498518,115.05217633949805L79.95552694202685,121.39337039097151L-15.320177111872535,114.74102527528295zM-20.942990887331867,117.71926079377789L79.95552694202685,121.39337039097151L-20.534097838924787,117.6578786863362zM-15.926678112435505,115.3516683130724L79.95552694202685,121.39337039097151L-15.614640622498518,115.05217633949805zM-20.534097838924787,117.6578786863362L79.95552694202685,121.39337039097151L-20.12309824174356,117.57439298975082zM-16.255048561380722,115.63827405868598L79.95552694202685,121.39337039097151L-15.926678112435505,115.3516683130724zM-20.12309824174356,117.57439298975082L79.95552694202685,121.39337039097151L-19.711636954927226,117.4691340560998zM-16.598443149766233,115.91085576352474L79.95552694202685,121.39337039097151L-16.255048561380722,115.63827405868598zM-19.711636954927226,117.4691340560998L79.95552694202685,121.39337039097151L-19.30136137554937,117.34252112380354zM-16.955488313687844,116.16832196470465L79.95552694202685,121.39337039097151L-16.598443149766233,115.91085576352474zM-19.30136137554937,117.34252112380354L79.95552694202685,121.39337039097151L-18.893915110062036,117.19506679593735zM-17.32475837356848,116.40964631089756L79.95552694202685,121.39337039097151L-16.955488313687844,116.16832196470465zM-18.893915110062036,117.19506679593735L79.95552694202685,121.39337039097151L-18.49092835801525,117.02733205343215zM-17.704775481668705,116.6338385014217L79.95552694202685,121.39337039097151L-17.32475837356848,116.40964631089756zM-18.49092835801525,117.02733205343215L79.95552694202685,121.39337039097151L-18.09401851366164,116.84001228445041zM-18.09401851366164,116.84001228445041L79.95552694202685,121.39337039097151L-17.704775481668705,116.6338385014217z" style="fill:rgb(83,212,212)"/></svg>
